<svg version="1.1" id="Layer_1" xmlns="http://www.w3.org/2000/svg" xmlns:xlink="http://www.w3.org/1999/xlink" x="0px" y="0px"
	 width="122" height="116" viewBox="0 0 122 116" enable-background="new 0 0 122 116" xml:space="preserve">
<path fill="#0A45A7" opacity="1.000000" stroke="none" 
	d="
M121.000000,117.000000 
	C81.979103,117.000000 42.958210,117.000000 3.473992,116.531364 
	C3.012814,80.411346 3.099965,44.759525 2.918284,9.109078 
	C2.893282,4.203139 4.501168,2.902597 9.234631,2.925437 
	C44.218834,3.094247 79.204216,3.016870 114.189224,3.021559 
	C120.953308,3.022465 120.971146,3.031873 120.973938,10.045852 
	C120.988136,45.697235 120.992317,81.348618 121.000000,117.000000 
M82.207275,34.608261 
	C81.192192,30.540142 78.346863,29.058222 74.422264,29.085354 
	C71.424423,29.106083 68.426483,29.119247 65.428574,29.121067 
	C57.501736,29.125877 49.574890,29.122696 41.783772,29.122696 
	C40.374924,40.307674 41.256981,56.903000 43.105103,59.449280 
	C47.694183,54.684322 52.314709,49.886719 56.980015,45.042618 
	C55.954231,43.912605 54.371082,42.168591 52.787937,40.424576 
	C52.989452,39.992409 53.190971,39.560238 53.392490,39.128067 
	C58.641567,39.128067 63.896481,39.003063 69.134155,39.247398 
	C70.038994,39.289608 71.578651,40.866879 71.619629,41.788662 
	C71.857971,47.150948 71.736275,52.529232 71.736275,58.918221 
	C68.966423,56.578228 67.145317,55.039742 65.012703,53.238098 
	C59.071228,59.252445 53.293816,64.985130 47.657494,70.853333 
	C44.693153,73.939629 45.113937,77.134544 48.071297,80.055923 
	C52.336319,84.269073 56.610676,88.473419 60.933556,92.626877 
	C61.911587,93.566574 63.105484,94.281601 65.376282,95.979630 
	C65.376282,86.574234 65.376282,78.566833 65.376282,69.939522 
	C71.502739,69.939522 76.896416,69.939522 82.326233,69.939522 
	C82.326233,58.016747 82.326233,46.728828 82.207275,34.608261 
z"/>
<path fill="#E5FFFF" opacity="1.000000" stroke="none" 
	d="
M2.000000,117.000000 
	C1.666668,115.669014 1.044014,114.338425 1.042140,113.006973 
	C0.989669,75.726219 1.000000,38.445370 1.000000,1.082269 
	C41.554482,1.082269 82.109192,1.082269 123.000000,1.082269 
	C123.000000,39.666016 123.000000,78.333008 122.500107,116.531342 
	C122.000221,78.146004 122.000221,40.229328 122.000221,2.309989 
	C81.707207,2.309989 41.992615,2.309989 2.000000,2.309989 
	C2.000000,40.749020 2.000000,78.874512 2.000000,117.000000 
z"/>
<path fill="#1E4281" opacity="1.000000" stroke="none" 
	d="
M2.250000,117.000000 
	C2.000000,78.874512 2.000000,40.749020 2.000000,2.309989 
	C41.992615,2.309989 81.707207,2.309989 122.000221,2.309989 
	C122.000221,40.229328 122.000221,78.146004 122.000107,116.531342 
	C122.000000,117.000000 121.500000,117.000000 121.250000,117.000000 
	C120.992317,81.348618 120.988136,45.697235 120.973938,10.045852 
	C120.971146,3.031873 120.953308,3.022465 114.189224,3.021559 
	C79.204216,3.016870 44.218834,3.094247 9.234631,2.925437 
	C4.501168,2.902597 2.893282,4.203139 2.918284,9.109078 
	C3.099965,44.759525 3.012814,80.411346 3.005334,116.531364 
	C3.000000,117.000000 2.500000,117.000000 2.250000,117.000000 
z"/>
<path fill="#F1F7FB" opacity="1.000000" stroke="none" 
	d="
M82.266754,35.024586 
	C82.326233,46.728828 82.326233,58.016747 82.326233,69.939522 
	C76.896416,69.939522 71.502739,69.939522 65.376282,69.939522 
	C65.376282,78.566833 65.376282,86.574234 65.376282,95.979630 
	C63.105484,94.281601 61.911587,93.566574 60.933556,92.626877 
	C56.610676,88.473419 52.336319,84.269073 48.071297,80.055923 
	C45.113937,77.134544 44.693153,73.939629 47.657494,70.853333 
	C53.293816,64.985130 59.071228,59.252445 65.012703,53.238098 
	C67.145317,55.039742 68.966423,56.578228 71.736275,58.918221 
	C71.736275,52.529232 71.857971,47.150948 71.619629,41.788662 
	C71.578651,40.866879 70.038994,39.289608 69.134155,39.247398 
	C63.896481,39.003063 58.641567,39.128067 53.392490,39.128067 
	C53.190971,39.560238 52.989452,39.992409 52.787937,40.424576 
	C54.371082,42.168591 55.954231,43.912605 56.980015,45.042618 
	C52.314709,49.886719 47.694183,54.684322 43.105103,59.449280 
	C41.256981,56.903000 40.374924,40.307674 41.783772,29.122696 
	C49.574890,29.122696 57.501736,29.125877 65.428574,29.121067 
	C68.426483,29.119247 71.424423,29.106083 74.422264,29.085354 
	C78.346863,29.058222 81.192192,30.540142 82.266754,35.024586 
z"/>
</svg>