<svg xmlns="http://www.w3.org/2000/svg" viewBox="0 0 200 50" fill="none">

  <!-- Icon — original paths scaled to 50px tall (scale = 50/116 ≈ 0.431) -->
  <g transform="scale(0.431)">
    <!-- Blue background square -->
    <path fill="#0A45A7" stroke="none" d="
M121,117 C81.98,117 42.96,117 3.47,116.53
C3.01,80.41 3.10,44.76 2.92,9.11
C2.89,4.20 4.50,2.90 9.23,2.93
C44.22,3.09 79.20,3.02 114.19,3.02
C120.95,3.02 120.97,3.03 120.97,10.05
C120.99,45.70 120.99,81.35 121,117z"/>
    <!-- Border -->
    <path fill="#1E4281" stroke="none" d="
M2.25,117 C2,78.87 2,40.75 2,2.31
C41.99,2.31 81.71,2.31 122,2.31
C122,40.23 122,78.15 122,116.53
C122,117 121.5,117 121.25,117
C120.99,81.35 120.99,45.70 120.97,10.05
C120.97,3.03 120.95,3.02 114.19,3.02
C79.20,3.02 44.22,3.09 9.23,2.93
C4.50,2.90 2.89,4.20 2.92,9.11
C3.10,44.76 3.01,80.41 3.01,116.53
C3,117 2.5,117 2.25,117z"/>
    <!-- White icon (P-arrow shape) -->
    <path fill="#F1F7FB" stroke="none" d="
M82.27,35.02
C82.33,46.73 82.33,58.02 82.33,69.94
C76.90,69.94 71.50,69.94 65.38,69.94
C65.38,78.57 65.38,86.57 65.38,95.98
C63.11,94.28 61.91,93.57 60.93,92.63
C56.61,88.47 52.34,84.27 48.07,80.06
C45.11,77.13 44.69,73.94 47.66,70.85
C53.29,64.99 59.07,59.25 65.01,53.24
C67.15,55.04 68.97,56.58 71.74,58.92
C71.74,52.53 71.86,47.15 71.62,41.79
C71.58,40.87 70.04,39.29 69.13,39.25
C63.90,39.00 58.64,39.13 53.39,39.13
C52.99,39.56 52.79,39.99 52.79,40.42
C54.37,42.17 55.95,43.91 56.98,45.04
C52.31,49.89 47.69,54.68 43.11,59.45
C41.26,56.90 40.37,40.31 41.78,29.12
C49.57,29.12 57.50,29.13 65.43,29.12
C68.43,29.12 71.42,29.11 74.42,29.09
C78.35,29.06 81.19,30.54 82.27,35.02z"/>
  </g>

  <!-- "Portal" text -->
  <text
    x="58" y="19"
    font-family="Inter, system-ui, -apple-system, sans-serif"
    font-size="14" font-weight="700"
    fill="#0A45A7" letter-spacing="-0.4">Portal</text>

  <!-- "Carreiras" text -->
  <text
    x="58" y="37"
    font-family="Inter, system-ui, -apple-system, sans-serif"
    font-size="14" font-weight="700"
    fill="#0A45A7" letter-spacing="-0.4">Carreiras</text>

</svg>
